<svg id="Icones" xmlns="http://www.w3.org/2000/svg" viewBox="0 0 24 24"><defs><style>.cls-1,.cls-2,.cls-3,.cls-4{fill:none;stroke:#1d1d1b;stroke-linecap:round;stroke-linejoin:round;}.cls-1{stroke-width:0.51px;}.cls-2{stroke-width:0.47px;}.cls-3{stroke-width:0.47px;}.cls-4{stroke-width:0.5px;}</style></defs><title>Icon - Search</title><path class="cls-1" d="M18,15H6V6.94A.94.94,0,0,1,6.94,6H17.06a.94.94,0,0,1,.94.94V9"/><path class="cls-2" d="M5,15H19a0,0,0,0,1,0,0v1.06a.94.94,0,0,1-.94.94H5.94A.94.94,0,0,1,5,16.06V15A0,0,0,0,1,5,15Z"/><polyline class="cls-3" points="7.47 14 7.47 7.53 16.53 7.53"/><path class="cls-4" d="M10.5,15h3a0,0,0,0,1,0,0v0a1,1,0,0,1-1,1h-1a1,1,0,0,1-1-1v0A0,0,0,0,1,10.5,15Z"/><circle class="cls-4" cx="15.56" cy="11.06" r="2.06"/><line class="cls-4" x1="17.02" y1="12.52" x2="18.5" y2="14"/></svg>