<svg id="Icones" xmlns="http://www.w3.org/2000/svg" viewBox="0 0 24 24"><defs><style>.cls-1{fill:none;stroke:#1d1d1b;stroke-linecap:round;stroke-linejoin:round;stroke-width:0.5px;}</style></defs><title>Icon - Sound</title><g id="Group"><path id="Stroke_5597" data-name="Stroke 5597" class="cls-1" d="M7.26,10.33H5a1,1,0,0,0-1,1v2a1,1,0,0,0,1,1H7.26L12,19V6Z"/><path id="Stroke_5598" data-name="Stroke 5598" class="cls-1" d="M16.72,7.06A7,7,0,0,1,19,12.28a6.94,6.94,0,0,1-2.28,5.22"/><path id="Stroke_5599" data-name="Stroke 5599" class="cls-1" d="M15.09,8.37A5.32,5.32,0,0,1,17,12.28a5.3,5.3,0,0,1-1.95,3.91"/><path id="Stroke_5600" data-name="Stroke 5600" class="cls-1" d="M13.78,10a2.85,2.85,0,0,1,1.31,2.28,2.85,2.85,0,0,1-1.31,2.28"/></g></svg>