<svg id="Icones" xmlns="http://www.w3.org/2000/svg" viewBox="0 0 24 24"><defs><style>.cls-1{fill:none;stroke:#1d1d1b;stroke-linecap:round;stroke-linejoin:round;stroke-width:0.48px;}</style></defs><title>Icon - Video Game</title><circle cx="16.48" cy="11.62" r="0.37"/><circle cx="15.36" cy="10.52" r="0.37"/><circle cx="17.61" cy="10.52" r="0.38"/><circle cx="16.48" cy="9.38" r="0.37"/><line class="cls-1" x1="8" y1="9" x2="8" y2="12"/><line class="cls-1" x1="9.5" y1="10.52" x2="6.5" y2="10.52"/><path class="cls-1" d="M19.79,16.52a1.58,1.58,0,0,1-1.11.65c-2.14.36-3.58-2.41-4.09-3.62a.93.93,0,0,0-.85-.55H10.26a.92.92,0,0,0-.84.55c-.52,1.21-2,4-4.1,3.62a1.58,1.58,0,0,1-1.11-.65c-.65-1-.37-2.93,0-4.9C4.9,8.46,6,7,7.77,7H7.9a8.91,8.91,0,0,1,1.77.19,11.64,11.64,0,0,0,4.63,0A10.41,10.41,0,0,1,16.19,7c1.8,0,2.9,1.48,3.53,4.62C20.16,13.59,20.45,15.56,19.79,16.52Z"/></svg>