<svg id="Icones" xmlns="http://www.w3.org/2000/svg" viewBox="0 0 24 24"><defs><style>.cls-1{fill:none;stroke:#1d1d1b;stroke-linecap:round;stroke-linejoin:round;stroke-width:0.5px;}</style></defs><title>Icon - Gear</title><g id="Group"><path id="Stroke_3401" data-name="Stroke 3401" class="cls-1" d="M16.59,16.2,18,13.8,16.59,13a4.5,4.5,0,0,0,0-2L18,10.2,16.59,7.8l-1.36.8a6.34,6.34,0,0,0-1.7-1V6H10.7V7.6a3.46,3.46,0,0,0-1.82,1L7.44,7.8,6,10.2l1.41.8a4.5,4.5,0,0,0,0,2L6,13.8l1.41,2.4,1.47-.8a3.46,3.46,0,0,0,1.82,1V18h2.83V16.4a6.61,6.61,0,0,0,1.7-1l1.36.8Z"/><path id="Stroke_3402" data-name="Stroke 3402" class="cls-1" d="M13.88,12A1.88,1.88,0,1,1,12,10.15,1.87,1.87,0,0,1,13.88,12Z"/></g></svg>