<svg id="Icones" xmlns="http://www.w3.org/2000/svg" viewBox="0 0 24 24"><defs><style>.cls-1{fill:none;stroke:#1d1d1b;stroke-linecap:round;stroke-linejoin:round;stroke-width:0.5px;}</style></defs><title>Icon - Lego</title><g id="Group"><path id="Stroke_3819" data-name="Stroke 3819" class="cls-1" d="M11.7,13.08,5,10v4.92L11.7,18Z"/><path id="Stroke_3820" data-name="Stroke 3820" class="cls-1" d="M19,10l-7.3,3.08V18L19,14.92Z"/><path id="Stroke_3821" data-name="Stroke 3821" class="cls-1" d="M13.83,10.31c0,.51-.82.92-1.83.92s-1.83-.41-1.83-.92S11,9.38,12,9.38,13.83,9.8,13.83,10.31Z"/><path id="Stroke_3822" data-name="Stroke 3822" class="cls-1" d="M13.83,6.92c0,.51-.82.93-1.83.93s-1.83-.42-1.83-.93S11,6,12,6,13.83,6.41,13.83,6.92Z"/><path id="Stroke_3823" data-name="Stroke 3823" class="cls-1" d="M18.09,8.77c0,.51-.82.92-1.83.92s-1.83-.41-1.83-.92.82-.92,1.83-.92S18.09,8.26,18.09,8.77Z"/><path id="Stroke_3824" data-name="Stroke 3824" class="cls-1" d="M9.87,8.77c0,.51-.82.92-1.83.92s-1.82-.41-1.82-.92S7,7.85,8,7.85,9.87,8.26,9.87,8.77Z"/><path id="Stroke_3825" data-name="Stroke 3825" class="cls-1" d="M6.57,9.31,5,10"/><path id="Stroke_3826" data-name="Stroke 3826" class="cls-1" d="M10.62,7.53l-1.31.58"/><path id="Stroke_3827" data-name="Stroke 3827" class="cls-1" d="M14.86,8.18l-1.48-.65"/><path id="Stroke_3828" data-name="Stroke 3828" class="cls-1" d="M19,10l-1.4-.62"/></g></svg>