<svg id="Icones" xmlns="http://www.w3.org/2000/svg" viewBox="0 0 24 24"><defs><style>.cls-1{fill:none;stroke:#1d1d1b;stroke-linecap:round;stroke-linejoin:round;stroke-width:0.48px;}</style></defs><title>Icon - Watering Can</title><path id="Stroke_6002" data-name="Stroke 6002" class="cls-1" d="M17,12.48,10.61,5.94,4.43,12.12a1.45,1.45,0,0,0,0,2.06h0l3.4,3.39a1.44,1.44,0,0,0,2.05,0L15,12.48Z"/><path id="Stroke_6003" data-name="Stroke 6003" class="cls-1" d="M10,6.5V5.35A1.41,1.41,0,0,0,8.5,4,1.57,1.57,0,0,0,7,5.54v4"/><path id="Stroke_6004" data-name="Stroke 6004" class="cls-1" d="M18.25,16.75a1.25,1.25,0,0,1-2.5,0A10.45,10.45,0,0,1,17,14,10.45,10.45,0,0,1,18.25,16.75Z"/></svg>