<svg id="Icones" xmlns="http://www.w3.org/2000/svg" viewBox="0 0 24 24"><defs><style>.cls-1{fill:none;stroke:#1d1d1b;stroke-linecap:round;stroke-linejoin:round;stroke-width:0.5px;}</style></defs><title>Icon - No Vision</title><path class="cls-1" d="M14.35,8A7.34,7.34,0,0,0,12,7.6c-4.42,0-8,4.48-8,4.48A15.53,15.53,0,0,0,7.23,15"/><path class="cls-1" d="M9.62,16.15a7.53,7.53,0,0,0,2.38.41c4.42,0,8-4.48,8-4.48A15.53,15.53,0,0,0,16.75,9.2"/><path class="cls-1" d="M11.22,14.72a2.89,2.89,0,0,0,.78.12,2.77,2.77,0,0,0,2.78-2.76,2.82,2.82,0,0,0-.08-.65"/><path class="cls-1" d="M12.88,9.48A2.85,2.85,0,0,0,12,9.33a2.76,2.76,0,0,0-2.78,2.75,2.56,2.56,0,0,0,.13.79"/><path id="Stroke_156" data-name="Stroke 156" class="cls-1" d="M17,7.14,7.05,17"/></svg>