<svg id="Icones" xmlns="http://www.w3.org/2000/svg" viewBox="0 0 24 24"><defs><style>.cls-1{fill:none;stroke:#1d1d1b;stroke-linecap:round;stroke-linejoin:round;stroke-width:0.5px;}</style></defs><title>Icon - Bond</title><path id="Stroke_2674" data-name="Stroke 2674" class="cls-1" d="M8,16.6a1.38,1.38,0,1,1-1.38-1.38A1.38,1.38,0,0,1,8,16.6Z"/><path id="Stroke_2675" data-name="Stroke 2675" class="cls-1" d="M11.64,10.24a1.39,1.39,0,1,1-1.38-1.38A1.38,1.38,0,0,1,11.64,10.24Z"/><path id="Stroke_2676" data-name="Stroke 2676" class="cls-1" d="M15.51,13.56a1.38,1.38,0,1,1-1.38-1.38A1.38,1.38,0,0,1,15.51,13.56Z"/><path id="Stroke_2677" data-name="Stroke 2677" class="cls-1" d="M18,6.65a1.39,1.39,0,1,1-1.38-1.38A1.38,1.38,0,0,1,18,6.65Z"/><path id="Stroke_2678" data-name="Stroke 2678" class="cls-1" d="M7.34,15.4l2.24-4"/><path id="Stroke_2679" data-name="Stroke 2679" class="cls-1" d="M11.31,11.14l1.77,1.52"/><path id="Stroke_2680" data-name="Stroke 2680" class="cls-1" d="M14.6,12.26,16.15,8"/></svg>