<svg id="Icones" xmlns="http://www.w3.org/2000/svg" viewBox="0 0 24 24"><defs><style>.cls-1{fill:none;stroke:#1d1d1b;stroke-linecap:round;stroke-linejoin:round;stroke-width:0.5px;}</style></defs><title>Icon - Sightseeing</title><path class="cls-1" d="M17.87,14.87A1.87,1.87,0,0,0,15.81,13a1.91,1.91,0,0,0-1.62,1.43c-.23.83.22,1.29.56,1.93l.32.52.67,1a.31.31,0,0,0,.52,0l.68-1A4.22,4.22,0,0,0,17.87,14.87Z"/><circle class="cls-1" cx="16" cy="14.87" r="0.94"/><polyline class="cls-1" points="18 12 18 8.86 14 6 10 8.86 6 6 6 15.14 10 18 12.95 15.89"/><path id="Stroke_6480" data-name="Stroke 6480" class="cls-1" d="M10,8.86V18"/><path class="cls-1" d="M14,12V6"/></svg>