<svg id="Icones" xmlns="http://www.w3.org/2000/svg" viewBox="0 0 24 24"><defs><style>.cls-1{fill:none;stroke:#1d1d1b;stroke-linecap:round;stroke-linejoin:round;stroke-width:0.5px;}</style></defs><title>Icon - Clock</title><path id="Stroke_3467" data-name="Stroke 3467" class="cls-1" d="M17.25,13A5.26,5.26,0,1,1,12,7.74,5.26,5.26,0,0,1,17.25,13Z"/><path id="Stroke_3468" data-name="Stroke 3468" class="cls-1" d="M8.81,17.19,8,18"/><path id="Stroke_3469" data-name="Stroke 3469" class="cls-1" d="M15.21,17.16,16,18"/><path id="Stroke_3470" data-name="Stroke 3470" class="cls-1" d="M9.77,13H12V9.69"/><path id="Stroke_3471" data-name="Stroke 3471" class="cls-1" d="M6.45,9.69a2.1,2.1,0,0,1-.06-3l.06-.06a2.12,2.12,0,0,1,3-.06l.06.06"/><path id="Stroke_3472" data-name="Stroke 3472" class="cls-1" d="M17.53,9.69a2.11,2.11,0,0,0,.06-3l-.06-.06a2.12,2.12,0,0,0-3-.06l-.06.06"/></svg>