<svg id="Icones" xmlns="http://www.w3.org/2000/svg" viewBox="0 0 24 24"><defs><style>.cls-1{fill:none;stroke:#1d1d1b;stroke-linecap:round;stroke-linejoin:round;stroke-width:0.5px;}</style></defs><title>Icon - Car</title><path id="Stroke_7838" data-name="Stroke 7838" class="cls-1" d="M8.09,14.73A1.32,1.32,0,0,1,6.72,16a1.28,1.28,0,1,1,0-2.55A1.32,1.32,0,0,1,8.09,14.73Z"/><path id="Stroke_7839" data-name="Stroke 7839" class="cls-1" d="M17.62,14.73h2.05"/><path id="Stroke_7840" data-name="Stroke 7840" class="cls-1" d="M17.62,14.73a1.36,1.36,0,1,1-1.36-1.28A1.32,1.32,0,0,1,17.62,14.73Z"/><path id="Stroke_7841" data-name="Stroke 7841" class="cls-1" d="M8.09,14.73H14.9"/><path id="Stroke_7842" data-name="Stroke 7842" class="cls-1" d="M19,14.73V12.5a1,1,0,0,0-1-.95h-1L15.58,9H9.11L7.75,11.55H5a1,1,0,0,0-1,.95v2.23H5.36"/><path id="Stroke_7843" data-name="Stroke 7843" class="cls-1" d="M9.45,11.55l.68-1.28h.68"/></svg>