<svg id="Icones" xmlns="http://www.w3.org/2000/svg" viewBox="0 0 24 24"><defs><style>.cls-1{fill:none;stroke:#1d1d1b;stroke-linecap:round;stroke-linejoin:round;stroke-width:0.5px;}</style></defs><title>Icon - Experiment</title><path id="Stroke_8988" data-name="Stroke 8988" class="cls-1" d="M13.5,12V9h-3v3l-3,5a1,1,0,0,0,1,1h7a1,1,0,0,0,1-1Z"/><path id="Stroke_8989" data-name="Stroke 8989" class="cls-1" d="M9.5,9h5"/><path id="Stroke_8990" data-name="Stroke 8990" class="cls-1" d="M13,6a1,1,0,1,1-1-1A1,1,0,0,1,13,6Z"/><path id="Stroke_8991" data-name="Stroke 8991" class="cls-1" d="M15.24,7.5a.26.26,0,0,1-.26.26.26.26,0,0,1,0-.52A.26.26,0,0,1,15.24,7.5Z"/><path id="Stroke_8992" data-name="Stroke 8992" class="cls-1" d="M9.5,7.5A.5.5,0,1,1,9,7,.5.5,0,0,1,9.5,7.5Z"/><path id="Stroke_8993" data-name="Stroke 8993" class="cls-1" d="M9.3,14h5.4"/></svg>