<svg id="Icones" xmlns="http://www.w3.org/2000/svg" viewBox="0 0 24 24"><defs><style>.cls-1{fill:none;stroke:#1d1d1b;stroke-linecap:round;stroke-linejoin:round;stroke-width:0.5px;}.cls-2{fill:#1d1d1b;}</style></defs><title>Icon - Doubt Balloon</title><path id="Stroke_968" data-name="Stroke 968" class="cls-1" d="M9.11,9.73a2,2,0,0,1,2-2,2,2,0,0,1,.08,3.94H11.1V13"/><path id="Stroke_969" data-name="Stroke 969" class="cls-2" d="M11.61,14.5a.5.5,0,1,1-.5-.5A.5.5,0,0,1,11.61,14.5Z"/><path class="cls-1" d="M17.43,13.65l.79,2.21L19,18.08l-2.08-.84-2.08-.84h0a7.38,7.38,0,0,1-3.78,1A6.88,6.88,0,0,1,4,10.76a6.88,6.88,0,0,1,7.06-6.68,6.89,6.89,0,0,1,7.07,6.68,6.29,6.29,0,0,1-.7,2.89Z"/></svg>