<svg id="Icones" xmlns="http://www.w3.org/2000/svg" viewBox="0 0 24 24"><defs><style>.cls-1{fill:none;stroke:#1d1d1b;stroke-linecap:round;stroke-linejoin:round;stroke-width:0.5px;}</style></defs><title>Icon - Compliment Balloon</title><path class="cls-1" d="M17.32,13.57l.78,2.2L18.89,18l-2.08-.84-2.08-.84h0a7.38,7.38,0,0,1-3.78,1,6.88,6.88,0,0,1-7.06-6.67A6.88,6.88,0,0,1,11,4,6.88,6.88,0,0,1,18,10.68a6.44,6.44,0,0,1-.69,2.89Z"/><path class="cls-1" d="M12.32,8.6A1.7,1.7,0,0,0,11,9.33,1.7,1.7,0,0,0,9.68,8.6,1.68,1.68,0,0,0,8,10.28c0,2.07,2.73,3.63,2.85,3.69a.39.39,0,0,0,.3,0c.12-.06,2.85-1.59,2.85-3.69A1.68,1.68,0,0,0,12.32,8.6Z"/></svg>