<svg id="Icones" xmlns="http://www.w3.org/2000/svg" viewBox="0 0 24 24"><defs><style>.cls-1{fill:none;stroke:#1d1d1b;stroke-linecap:round;stroke-linejoin:round;stroke-width:0.5px;}</style></defs><title>Icon - Scare</title><g id="Group"><path id="Stroke_3693" data-name="Stroke 3693" class="cls-1" d="M18,12a6,6,0,1,1-6-6A6,6,0,0,1,18,12Z"/><path id="Stroke_3694" data-name="Stroke 3694" class="cls-1" d="M10.3,9.65a.78.78,0,1,1-.78-.78A.78.78,0,0,1,10.3,9.65Z"/><path id="Stroke_3695" data-name="Stroke 3695" class="cls-1" d="M13.57,14.35A1.57,1.57,0,1,1,12,12.78,1.57,1.57,0,0,1,13.57,14.35Z"/><path id="Stroke_3696" data-name="Stroke 3696" class="cls-1" d="M13.43,9.65a.79.79,0,0,0,.79.78.78.78,0,1,0,0-1.56A.79.79,0,0,0,13.43,9.65Z"/></g></svg>