<svg id="Icones" xmlns="http://www.w3.org/2000/svg" viewBox="0 0 24 24"><defs><style>.cls-1{fill:none;stroke:#1d1d1b;stroke-linecap:round;stroke-linejoin:round;stroke-width:0.5px;}</style></defs><title>Icon - Camera</title><path id="Stroke_5249" data-name="Stroke 5249" class="cls-1" d="M6,9l0-.61a.64.64,0,0,1,.65-.6H7.3a.67.67,0,0,1,.7.6V9"/><path id="Stroke_5250" data-name="Stroke 5250" class="cls-1" d="M16.57,9,16,7.58A1.19,1.19,0,0,0,15,7H12a1.16,1.16,0,0,0-.91.61L10.17,9H6.22C5.3,9,5,9.38,5,10v5.84C5,16.49,5.3,17,6.25,17h11.5c.95,0,1.25-.52,1.25-1.15V10c0-.64-.3-1-1.25-1Z"/><path id="Stroke_5251" data-name="Stroke 5251" class="cls-1" d="M16.43,12a3,3,0,1,1-3-3A3,3,0,0,1,16.43,12Z"/><path id="Stroke_5252" data-name="Stroke 5252" class="cls-1" d="M15.07,12a1.64,1.64,0,1,1-1.64-1.63A1.63,1.63,0,0,1,15.07,12Z"/><path id="Stroke_5253" data-name="Stroke 5253" class="cls-1" d="M8,11a1,1,0,1,1-1-1A1,1,0,0,1,8,11Z"/></svg>