<svg id="Icones" xmlns="http://www.w3.org/2000/svg" viewBox="0 0 24 24"><defs><style>.cls-1{fill:none;stroke:#1d1d1b;stroke-linecap:round;stroke-linejoin:round;stroke-width:0.5px;}</style></defs><title>Icon - Coins</title><g id="Group"><path id="Stroke_4616" data-name="Stroke 4616" class="cls-1" d="M13.83,7c0,.58-1.76,1-3.92,1S6,7.62,6,7,7.75,6,9.91,6,13.83,6.47,13.83,7Z"/><path id="Stroke_4617" data-name="Stroke 4617" class="cls-1" d="M13.83,7V8.61c0,.57-1.76,1-3.92,1S6,9.18,6,8.61V7"/><path id="Stroke_4618" data-name="Stroke 4618" class="cls-1" d="M13.83,8.61v1.56c0,.58-1.76,1.05-3.92,1.05S6,10.75,6,10.17V8.61"/><path id="Stroke_4619" data-name="Stroke 4619" class="cls-1" d="M18,13.83c0,.57-1.75,1-3.91,1s-3.92-.47-3.92-1,1.76-1.05,3.92-1.05S18,13.25,18,13.83Z"/><path id="Stroke_4620" data-name="Stroke 4620" class="cls-1" d="M18,13.83v1.56c0,.58-1.75,1-3.91,1s-3.92-.46-3.92-1V13.83"/><path id="Stroke_4621" data-name="Stroke 4621" class="cls-1" d="M18,15.39V17c0,.57-1.75,1-3.91,1s-3.92-.47-3.92-1V15.39"/><path id="Stroke_4622" data-name="Stroke 4622" class="cls-1" d="M13.83,10.17v1.57c0,.57-1.76,1-3.92,1S6,12.31,6,11.74V10.17"/><path id="Stroke_4623" data-name="Stroke 4623" class="cls-1" d="M6,11.74V13.3c0,.58,1.75,1,3.91,1h.26"/><path id="Stroke_4624" data-name="Stroke 4624" class="cls-1" d="M6,13.3v1.57c0,.57,1.75,1,3.91,1h.26"/><path id="Stroke_4625" data-name="Stroke 4625" class="cls-1" d="M13.83,11.74v1"/></g></svg>