<svg id="Icones" xmlns="http://www.w3.org/2000/svg" viewBox="0 0 24 24"><defs><style>.cls-1{fill:none;stroke:#1d1d1b;stroke-linecap:round;stroke-linejoin:round;stroke-width:0.5px;}</style></defs><title>Icon - Rocket</title><g id="Group"><path id="Stroke_7808" data-name="Stroke 7808" class="cls-1" d="M8.72,13.36s6-6,6.38-6.39c.58-.58,2.9-1,2.9-1s-.39,2.32-1,2.9l-6.39,6.39Z"/><path id="Stroke_7809" data-name="Stroke 7809" class="cls-1" d="M9.49,12.58l1.93,1.94"/><path id="Stroke_7810" data-name="Stroke 7810" class="cls-1" d="M13.55,12.39a11.76,11.76,0,0,1-.2,2.51,3.51,3.51,0,0,1-.77,1.16L10.64,18,11,14.93"/><path id="Stroke_7811" data-name="Stroke 7811" class="cls-1" d="M11.61,10.45a11.93,11.93,0,0,0-2.53.18,3.8,3.8,0,0,0-1.15.79L6,13.35,9.09,13"/><path id="Stroke_7812" data-name="Stroke 7812" class="cls-1" d="M9.48,15.29c.39.39.23.94-.19,1.36A14.33,14.33,0,0,1,6,18a14.33,14.33,0,0,1,1.35-3.29c.43-.43,1-.58,1.36-.2"/></g></svg>