<svg id="Icones" xmlns="http://www.w3.org/2000/svg" viewBox="0 0 24 24"><defs><style>.cls-1{fill:none;stroke:#1d1d1b;stroke-linecap:round;stroke-linejoin:round;stroke-width:0.5px;}</style></defs><title>Icon - Clover</title><g id="Stroke_7646_Stroke_7647" data-name="Stroke 7646 Stroke 7647"><path id="Stroke_7646" data-name="Stroke 7646" class="cls-1" d="M18.14,12.17A2,2,0,0,0,19,10.54c0-1.08-1.27-1.95-2.55-1.95-.63,0-1.75.89-2.7,1.79.87-1,1.75-2.12,1.75-2.77C15.5,6.3,14.64,5,13.59,5A1.89,1.89,0,0,0,12,5.88,1.89,1.89,0,0,0,10.41,5C9.35,5,8.5,6.3,8.5,7.61c0,.65.87,1.79,1.75,2.77-.95-.9-2.07-1.79-2.7-1.79C6.27,8.59,5,9.46,5,10.54a2,2,0,0,0,.85,1.63A2,2,0,0,0,5,13.8c0,1.08,1.27,2,2.55,2S12,14.13,12,14.13s3.18,1.63,4.45,1.63,2.55-.88,2.55-2A2,2,0,0,0,18.14,12.17Z"/><path id="Stroke_7647" data-name="Stroke 7647" class="cls-1" d="M12,14.13V18.7c0,.71.43,1.3.95,1.3h1"/></g></svg>