<svg id="Icones" xmlns="http://www.w3.org/2000/svg" viewBox="0 0 24 24"><defs><style>.cls-1{fill:none;stroke:#1d1d1b;stroke-linecap:round;stroke-linejoin:round;stroke-width:0.48px;}</style></defs><title>Icon - Disk</title><g id="Group"><path id="Stroke_5808" data-name="Stroke 5808" class="cls-1" d="M19.61,12a7.5,7.5,0,1,1-7.5-7.5A7.5,7.5,0,0,1,19.61,12Z"/><path id="Stroke_5809" data-name="Stroke 5809" class="cls-1" d="M13.75,12a1.64,1.64,0,1,1-1.64-1.63A1.63,1.63,0,0,1,13.75,12Z"/><path id="Fill_5810" data-name="Fill 5810" class="cls-1" d="M12.11,11.67a.33.33,0,0,0,0,.66.33.33,0,0,0,0-.66"/><path id="Stroke_5811" data-name="Stroke 5811" class="cls-1" d="M17.9,11.07a5.86,5.86,0,0,0-4.69-4.83"/><path id="Stroke_5812" data-name="Stroke 5812" class="cls-1" d="M16.62,11.28A4.56,4.56,0,0,0,13,7.52"/><path id="Stroke_5813" data-name="Stroke 5813" class="cls-1" d="M15.33,11.49A3.25,3.25,0,0,0,12.72,8.8"/><path id="Stroke_5814" data-name="Stroke 5814" class="cls-1" d="M6.33,12.93A5.86,5.86,0,0,0,11,17.76"/><path id="Stroke_5815" data-name="Stroke 5815" class="cls-1" d="M7.61,12.72a4.56,4.56,0,0,0,3.65,3.76"/><path id="Stroke_5816" data-name="Stroke 5816" class="cls-1" d="M8.9,12.51a3.27,3.27,0,0,0,2.61,2.69"/></g></svg>