<svg id="Icones" xmlns="http://www.w3.org/2000/svg" viewBox="0 0 24 24"><defs><style>.cls-1{fill:none;stroke:#1d1d1b;stroke-linecap:round;stroke-linejoin:round;stroke-width:0.5px;}</style></defs><title>Icon - Image</title><g id="Group"><path id="Stroke_5370" data-name="Stroke 5370" class="cls-1" d="M18,17H6V6H18Z"/><path id="Stroke_5371" data-name="Stroke 5371" class="cls-1" d="M18,14.13H6"/><path id="Stroke_5372" data-name="Stroke 5372" class="cls-1" d="M10.7,7.43a1.29,1.29,0,0,0-1.29,1,.81.81,0,0,0-1,.41.71.71,0,0,0,.45.93.87.87,0,0,0,.28.05H10.7A1.25,1.25,0,0,0,12,8.63,1.25,1.25,0,0,0,10.7,7.43Z"/><path id="Stroke_5373" data-name="Stroke 5373" class="cls-1" d="M7.57,14.13s1-2.39,2.34-2.39a3.51,3.51,0,0,1,2.35,1.43l1.57-2.47a.93.93,0,0,1,1.2-.29.8.8,0,0,1,.34.34l1.85,3.38"/></g></svg>