<svg id="Icones" xmlns="http://www.w3.org/2000/svg" viewBox="0 0 24 24"><defs><style>.cls-1{fill:none;stroke:#1d1d1b;stroke-linecap:round;stroke-linejoin:round;stroke-width:0.5px;}.cls-2{fill:#1d1d1b;}</style></defs><title>Icon - Ticket</title><path class="cls-1" d="M17.58,12.47a1.49,1.49,0,0,1,1-1.89,1.28,1.28,0,0,1,.47-.07V9a1,1,0,0,0-1-1H6A1,1,0,0,0,5,9v1.51a1.49,1.49,0,0,1,.47,2.91,1.28,1.28,0,0,1-.47.07V15a1,1,0,0,0,1,1H18a1,1,0,0,0,1-1V13.49A1.48,1.48,0,0,1,17.58,12.47Z"/><circle class="cls-2" cx="10" cy="12" r="0.5"/><circle class="cls-2" cx="12" cy="12" r="0.5"/><circle class="cls-2" cx="14" cy="12" r="0.5"/></svg>