<svg id="Icones" xmlns="http://www.w3.org/2000/svg" viewBox="0 0 24 24"><defs><style>.cls-1,.cls-2{fill:none;stroke-linecap:round;stroke-linejoin:round;stroke-width:0.5px;}.cls-1{stroke:#231f20;}.cls-2{stroke:#1d1d1b;}</style></defs><title>Icon - First Aid</title><polygon class="cls-1" points="15 12.25 12.75 12.25 12.75 10 11.25 10 11.25 12.25 9 12.25 9 13.75 11.25 13.75 11.25 16 12.75 16 12.75 13.75 15 13.75 15 12.25"/><path class="cls-2" d="M12,5h0a2.5,2.5,0,0,1,2.5,2.5V8a0,0,0,0,1,0,0h-5a0,0,0,0,1,0,0V7.5A2.5,2.5,0,0,1,12,5Z"/><rect class="cls-2" x="5" y="8" width="14" height="10" rx="1"/></svg>