<svg id="Icones" xmlns="http://www.w3.org/2000/svg" viewBox="0 0 24 24"><defs><style>.cls-1{fill:none;stroke:#1d1d1b;stroke-linecap:round;stroke-linejoin:round;stroke-width:0.5px;}</style></defs><title>Icon - Guitar</title><g id="Group"><path id="Stroke_5542" data-name="Stroke 5542" class="cls-1" d="M11.31,14a1.19,1.19,0,1,1,0-1.68,1.2,1.2,0,0,1,0,1.68Z"/><path id="Stroke_5543" data-name="Stroke 5543" class="cls-1" d="M6.28,15.64,8,17.31"/><path id="Stroke_5544" data-name="Stroke 5544" class="cls-1" d="M16.52,5.6,14.15,8l.3.29-2.37,2.37c-1.68-1.17-3.65-.33-3.85,1.48-3.65-.78-4.76,3.23-2.37,5.62s6.41,1.26,5.63-2.36A2.33,2.33,0,0,0,13,11.52l2.37-2.37.29.3L18,7.08Z"/><path id="Stroke_5545" data-name="Stroke 5545" class="cls-1" d="M15.34,5.6l.59.59"/><path id="Stroke_5546" data-name="Stroke 5546" class="cls-1" d="M14.45,6.49l.59.59"/><path id="Stroke_5547" data-name="Stroke 5547" class="cls-1" d="M18,8.26l-.59-.59"/><path id="Stroke_5548" data-name="Stroke 5548" class="cls-1" d="M17.11,9.15l-.59-.59"/></g></svg>