<svg id="Icones" xmlns="http://www.w3.org/2000/svg" viewBox="0 0 24 24"><defs><style>.cls-1{fill:none;stroke:#1d1d1b;stroke-linecap:round;stroke-linejoin:round;stroke-width:0.48px;}</style></defs><title>Icon - Link</title><g id="Stroke_49_Stroke_51" data-name="Stroke 49 Stroke 51"><path id="Stroke_49" data-name="Stroke 49" class="cls-1" d="M12.72,15.42l-2,2a1.89,1.89,0,0,1-2.69,0H8L7.56,17a1.89,1.89,0,0,1,0-2.69l2.92-2.92a1.91,1.91,0,0,1,2.69,0h0l.45.45"/><path id="Stroke_51" data-name="Stroke 51" class="cls-1" d="M12.27,9.59l2-2a1.89,1.89,0,0,1,2.69,0l.45.45a1.89,1.89,0,0,1,0,2.69h0l-2.92,2.92a1.91,1.91,0,0,1-2.69,0"/></g></svg>