<svg id="Icones" xmlns="http://www.w3.org/2000/svg" viewBox="0 0 24 24"><defs><style>.cls-1{fill:none;stroke:#1d1d1b;stroke-linecap:round;stroke-linejoin:round;stroke-width:0.5px;}</style></defs><title>Icon - Truck</title><path id="Stroke_7832" data-name="Stroke 7832" class="cls-1" d="M8.36,14.56A1.46,1.46,0,1,1,6.91,13.1,1.45,1.45,0,0,1,8.36,14.56Z"/><path id="Stroke_7833" data-name="Stroke 7833" class="cls-1" d="M17.08,14.56h3.64"/><path id="Stroke_7834" data-name="Stroke 7834" class="cls-1" d="M17.08,14.56a1.46,1.46,0,1,1-1.45-1.46A1.45,1.45,0,0,1,17.08,14.56Z"/><path id="Stroke_7835" data-name="Stroke 7835" class="cls-1" d="M8.36,14.56h5.81"/><path id="Stroke_7836" data-name="Stroke 7836" class="cls-1" d="M20,14.56V10.9H13.45V8h-4L8,10.9H5.09A1.09,1.09,0,0,0,4,12v2.56H5.45"/><path id="Stroke_7837" data-name="Stroke 7837" class="cls-1" d="M9.81,10.9l.73-1.46h.73"/></svg>