<svg id="Icones" xmlns="http://www.w3.org/2000/svg" viewBox="0 0 24 24"><defs><style>.cls-1{fill:none;stroke:#1d1d1b;stroke-linecap:round;stroke-linejoin:round;stroke-width:0.5px;}</style></defs><title>Icon - Flower</title><g id="Stroke_7644_Stroke_7645" data-name="Stroke 7644 Stroke 7645"><path id="Stroke_7644" data-name="Stroke 7644" class="cls-1" d="M13.88,12.37A1.88,1.88,0,1,1,12,10.43a1.9,1.9,0,0,1,1.88,1.94Z"/><path id="Stroke_7645" data-name="Stroke 7645" class="cls-1" d="M17.88,10.4a2.4,2.4,0,0,0-3-1.6h0a2.81,2.81,0,0,0-.47.21,2.24,2.24,0,0,0,.06-.52,2.42,2.42,0,1,0-4.84,0A3,3,0,0,0,9.63,9,2.39,2.39,0,0,0,6.12,10.4a2.51,2.51,0,0,0,1.55,3.14,2.78,2.78,0,0,0,.5.11A2.55,2.55,0,0,0,8,17.17a2.38,2.38,0,0,0,3.42.18,2,2,0,0,0,.33-.38,2.59,2.59,0,0,0,.26-.46,2.4,2.4,0,0,0,3.19,1.28,2.52,2.52,0,0,0,.63-4.14,2.13,2.13,0,0,0,.5-.11,2.5,2.5,0,0,0,1.56-3.14Z"/></g></svg>