<svg id="Icones" xmlns="http://www.w3.org/2000/svg" viewBox="0 0 24 24"><defs><style>.cls-1{fill:none;stroke:#1d1d1b;stroke-linecap:round;stroke-linejoin:round;stroke-width:0.5px;}</style></defs><title>Icon - Volume</title><path id="Stroke_5688" data-name="Stroke 5688" class="cls-1" d="M6,18H9"/><path id="Stroke_5688-2" data-name="Stroke 5688" class="cls-1" d="M6,17H9"/><path id="Stroke_5688-3" data-name="Stroke 5688" class="cls-1" d="M6,16H9"/><path id="Stroke_5688-4" data-name="Stroke 5688" class="cls-1" d="M6,15H9"/><path id="Stroke_5688-5" data-name="Stroke 5688" class="cls-1" d="M6,14H9"/><path id="Stroke_5688-6" data-name="Stroke 5688" class="cls-1" d="M6,13H9"/><path id="Stroke_5693" data-name="Stroke 5693" class="cls-1" d="M11,18h3.16"/><path id="Stroke_5694" data-name="Stroke 5694" class="cls-1" d="M11,17h3"/><path id="Stroke_5694-2" data-name="Stroke 5694" class="cls-1" d="M11,16h3"/><path id="Stroke_5694-3" data-name="Stroke 5694" class="cls-1" d="M11,15h3"/><path id="Stroke_5694-4" data-name="Stroke 5694" class="cls-1" d="M11,14h3"/><path id="Stroke_5694-5" data-name="Stroke 5694" class="cls-1" d="M11,13h3"/><path id="Stroke_5694-6" data-name="Stroke 5694" class="cls-1" d="M11,12h3"/><path id="Stroke_5694-7" data-name="Stroke 5694" class="cls-1" d="M11,11h3"/><path id="Stroke_5694-8" data-name="Stroke 5694" class="cls-1" d="M11,10h3"/><path id="Stroke_5694-9" data-name="Stroke 5694" class="cls-1" d="M11,9h3"/><path id="Stroke_5694-10" data-name="Stroke 5694" class="cls-1" d="M11,8h3"/><path id="Stroke_5694-11" data-name="Stroke 5694" class="cls-1" d="M11,7h3"/><path id="Stroke_5693-2" data-name="Stroke 5693" class="cls-1" d="M16,18h3.16"/><path id="Stroke_5694-12" data-name="Stroke 5694" class="cls-1" d="M16,17h3"/><path id="Stroke_5694-13" data-name="Stroke 5694" class="cls-1" d="M16,16h3"/></svg>