<svg id="Icones" xmlns="http://www.w3.org/2000/svg" viewBox="0 0 24 24"><defs><style>.cls-1{fill:none;stroke:#1d1d1b;stroke-linecap:round;stroke-linejoin:round;stroke-width:0.5px;}</style></defs><title>Icon - Ying Yang</title><path id="Stroke_7911" data-name="Stroke 7911" class="cls-1" d="M10.17,11.48a1,1,0,1,1-1-1.05A1,1,0,0,1,10.17,11.48Z"/><path id="Stroke_7912" data-name="Stroke 7912" class="cls-1" d="M15.91,12.52a1,1,0,1,1-1-1A1,1,0,0,1,15.91,12.52Z"/><path id="Stroke_7913" data-name="Stroke 7913" class="cls-1" d="M18,12a3.11,3.11,0,0,1-2.87,3.13c-5.22,0-1-6.26-6.26-6.26A2.86,2.86,0,0,0,6,11.74"/><path id="Stroke_7910" data-name="Stroke 7910" class="cls-1" d="M18,12a6,6,0,1,1-6-6A6,6,0,0,1,18,12Z"/></svg>