<svg id="Icones" xmlns="http://www.w3.org/2000/svg" viewBox="0 0 24 24"><defs><style>.cls-1{fill:none;stroke:#1d1d1b;stroke-linecap:round;stroke-linejoin:round;stroke-width:0.5px;}</style></defs><title>Icon - Phone</title><path id="Stroke_481" data-name="Stroke 481" class="cls-1" d="M10.78,10.71a1.09,1.09,0,0,0,0-1.53h0L9.63,8A1.09,1.09,0,0,0,8.1,8l-.63.63a1.62,1.62,0,0,0-.2,2,25,25,0,0,0,7,7,1.62,1.62,0,0,0,2-.2L17,16.9a1.09,1.09,0,0,0,0-1.53l-1.15-1.15a1.09,1.09,0,0,0-1.53,0l-.38.38a25.94,25.94,0,0,1-3.52-3.51l.39-.38Z"/></svg>