<svg id="Icones" xmlns="http://www.w3.org/2000/svg" viewBox="0 0 24 24"><defs><style>.cls-1,.cls-2,.cls-3,.cls-4{fill:none;stroke:#1d1d1b;stroke-linecap:round;stroke-linejoin:round;}.cls-1{stroke-width:0.51px;}.cls-2{stroke-width:0.47px;}.cls-3{stroke-width:0.47px;}.cls-4{stroke-width:0.5px;}</style></defs><title>Icon - Computer</title><path class="cls-1" d="M6.94,6H17.06a.94.94,0,0,1,.94.94V15a0,0,0,0,1,0,0H6a0,0,0,0,1,0,0V6.94A.94.94,0,0,1,6.94,6Z"/><path class="cls-2" d="M5,15H19a0,0,0,0,1,0,0v1.06a.94.94,0,0,1-.94.94H5.94A.94.94,0,0,1,5,16.06V15A0,0,0,0,1,5,15Z"/><polyline class="cls-3" points="7.47 14 7.47 7.53 16.53 7.53 16.53 14"/><path class="cls-4" d="M10.5,15h3a0,0,0,0,1,0,0v0a1,1,0,0,1-1,1h-1a1,1,0,0,1-1-1v0A0,0,0,0,1,10.5,15Z"/></svg>