<svg id="Icones" xmlns="http://www.w3.org/2000/svg" viewBox="0 0 24 24"><defs><style>.cls-1{fill:none;stroke:#1d1d1b;stroke-linecap:round;stroke-linejoin:round;stroke-width:0.5px;}.cls-2{fill:#1d1d1b;}</style></defs><title>Icon - Texting</title><path class="cls-1" d="M12,6H8A1,1,0,0,0,7,7V18a1,1,0,0,0,1,1h6a1,1,0,0,0,1-1V13"/><line class="cls-1" x1="7" y1="16" x2="15" y2="16"/><circle class="cls-2" cx="11" cy="17.58" r="0.71"/><path class="cls-1" d="M12.73,9.84l-.36,1-.37,1,1-.39,1-.39h0a3.49,3.49,0,0,0,1.76.48A3.2,3.2,0,0,0,19,8.49a3.2,3.2,0,0,0-3.29-3.1,3.2,3.2,0,0,0-3.28,3.1,3,3,0,0,0,.32,1.35Z"/><ellipse class="cls-2" cx="16.7" cy="8.64" rx="0.29" ry="0.3"/><ellipse class="cls-2" cx="15.78" cy="8.64" rx="0.29" ry="0.3"/><ellipse class="cls-2" cx="14.85" cy="8.64" rx="0.29" ry="0.3"/></svg>