<svg id="Icones" xmlns="http://www.w3.org/2000/svg" viewBox="0 0 24 24"><defs><style>.cls-1{fill:none;stroke:#1d1d1b;stroke-linecap:round;stroke-linejoin:round;stroke-width:0.5px;}</style></defs><title>Icon - Speaker</title><path class="cls-1" d="M17.41,8.11A2.32,2.32,0,0,1,18.9,9.8,2.22,2.22,0,0,1,18.45,12"/><path class="cls-1" d="M4.07,12.39,4.77,15a1,1,0,0,0,1.21.7L8.7,15a1,1,0,0,1,.45,0l5.27.46a9.34,9.34,0,0,1,1.28.25A1.1,1.1,0,0,0,17,14.33L15,6.84a1.11,1.11,0,0,0-.39-.62,1.09,1.09,0,0,0-1.4.11,11.5,11.5,0,0,1-1,.86l-4.33,3a.9.9,0,0,1-.39.22l-2.72.73A1,1,0,0,0,4.07,12.39Z"/><line class="cls-1" x1="8.9" y1="14.95" x2="7.66" y2="10.38"/><polyline class="cls-1" points="11.38 16.46 11.78 17.93 9.85 18.46 9.25 16.24"/></svg>