<svg id="Icones" xmlns="http://www.w3.org/2000/svg" viewBox="0 0 24 24"><defs><style>.cls-1,.cls-2{fill:none;stroke:#1d1d1b;stroke-linecap:round;stroke-linejoin:round;}.cls-1{stroke-width:0.48px;}.cls-2{stroke-width:0.5px;}</style></defs><title>Icon - Dial</title><path id="Stroke_442" data-name="Stroke 442" class="cls-1" d="M12.76,8.72a.83.83,0,0,1,.81-.89.9.9,0,0,1,.9.9v3.59l2.67.9A1.46,1.46,0,0,1,18,14.74L17.12,18H12.34L9.93,14.42c-.27-.42-.28-1.2.32-1.2s1.32.33,2.51,2.18Z"/><path id="Stroke_2041" data-name="Stroke 2041" class="cls-2" d="M6.18,5.56H7.49"/><path id="Stroke_2042" data-name="Stroke 2042" class="cls-2" d="M6.18,8.17H7.49"/><path id="Stroke_2043" data-name="Stroke 2043" class="cls-2" d="M6.18,10.79H7.49"/><path id="Stroke_2044" data-name="Stroke 2044" class="cls-2" d="M9.45,5.56h1.3"/><path id="Stroke_2045" data-name="Stroke 2045" class="cls-2" d="M9.45,8.17h1.3"/><path id="Stroke_2046" data-name="Stroke 2046" class="cls-2" d="M9.45,10.79h1.3"/><path id="Stroke_2047" data-name="Stroke 2047" class="cls-2" d="M12.72,5.56H14"/></svg>