<svg id="Icones" xmlns="http://www.w3.org/2000/svg" viewBox="0 0 24 24"><defs><style>.cls-1{fill:none;stroke:#1d1d1b;stroke-linecap:round;stroke-linejoin:round;stroke-width:0.5px;}</style></defs><title>Icon - Alarm Clock</title><path id="Stroke_3485" data-name="Stroke 3485" class="cls-1" d="M17,10a2.73,2.73,0,0,0-3-3"/><path id="Stroke_3486" data-name="Stroke 3486" class="cls-1" d="M19,10a4.77,4.77,0,0,0-5-5"/><path id="Stroke_3485-2" data-name="Stroke 3485" class="cls-1" d="M10,7a2.73,2.73,0,0,0-3,3"/><path id="Stroke_3486-2" data-name="Stroke 3486" class="cls-1" d="M10,5a4.77,4.77,0,0,0-5,5"/><path id="Stroke_3479" data-name="Stroke 3479" class="cls-1" d="M16.43,16.16V13.29A4.61,4.61,0,0,0,13.54,9c0-1-.54-1-1.54-1s-1.55,0-1.55,1a4.61,4.61,0,0,0-2.88,4.29v2.87A1.83,1.83,0,0,1,6,18H18A1.83,1.83,0,0,1,16.43,16.16Z"/><path id="Stroke_3480" data-name="Stroke 3480" class="cls-1" d="M13.57,18A1.83,1.83,0,0,1,12,20a1.83,1.83,0,0,1-1.57-2"/></svg>