<svg id="Icones" xmlns="http://www.w3.org/2000/svg" viewBox="0 0 24 24"><defs><style>.cls-1{fill:none;stroke:#1d1d1b;stroke-linecap:round;stroke-linejoin:round;stroke-width:0.5px;}</style></defs><title>Icon - Hierarchy</title><path id="Stroke_2681" data-name="Stroke 2681" class="cls-1" d="M13.42,6.45A1.42,1.42,0,1,1,12,5,1.42,1.42,0,0,1,13.42,6.45Z"/><path id="Stroke_2682" data-name="Stroke 2682" class="cls-1" d="M13.42,16.67A1.42,1.42,0,1,1,12,15.25,1.43,1.43,0,0,1,13.42,16.67Z"/><path id="Stroke_2683" data-name="Stroke 2683" class="cls-1" d="M18.53,16.67a1.42,1.42,0,1,1-1.42-1.42A1.43,1.43,0,0,1,18.53,16.67Z"/><path id="Stroke_2684" data-name="Stroke 2684" class="cls-1" d="M5.47,16.67a1.42,1.42,0,1,0,1.42-1.42A1.43,1.43,0,0,0,5.47,16.67Z"/><path id="Stroke_2685" data-name="Stroke 2685" class="cls-1" d="M12,7.87v7.38"/><path id="Stroke_2686" data-name="Stroke 2686" class="cls-1" d="M6.89,15.25a3.41,3.41,0,0,1,3.41-3.4h3.4a3.41,3.41,0,0,1,3.41,3.4"/></svg>