<svg id="Icones" xmlns="http://www.w3.org/2000/svg" viewBox="0 0 24 24"><defs><style>.cls-1{fill:none;stroke:#1d1d1b;stroke-linecap:round;stroke-linejoin:round;stroke-width:0.5px;}</style></defs><title>Icon - Broken Link</title><path id="Stroke_176" data-name="Stroke 176" class="cls-1" d="M14,9h2.66a2.66,2.66,0,0,1,2.66,2.66v.66A2.66,2.66,0,0,1,16.65,15H14"/><path id="Stroke_177" data-name="Stroke 177" class="cls-1" d="M10,9H7.35a2.66,2.66,0,0,0-2.66,2.66v.66A2.66,2.66,0,0,0,7.35,15H10"/><path id="Stroke_178" data-name="Stroke 178" class="cls-1" d="M12,8V6"/><path id="Stroke_179" data-name="Stroke 179" class="cls-1" d="M14,8l1-1"/><path id="Stroke_180" data-name="Stroke 180" class="cls-1" d="M10,8,9,7"/><path id="Stroke_181" data-name="Stroke 181" class="cls-1" d="M12,16v2"/><path id="Stroke_182" data-name="Stroke 182" class="cls-1" d="M14,16l1,1"/><path id="Stroke_183" data-name="Stroke 183" class="cls-1" d="M10,16,9,17"/></svg>