<svg id="Icones" xmlns="http://www.w3.org/2000/svg" viewBox="0 0 24 24"><defs><style>.cls-1{fill:none;stroke:#1d1d1b;stroke-linecap:round;stroke-linejoin:round;stroke-width:0.5px;}</style></defs><title>Icon - Lifebuoy</title><g id="Group"><path id="Stroke_6820" data-name="Stroke 6820" class="cls-1" d="M9,12.43H4.85V10.57H9"/><path id="Stroke_6821" data-name="Stroke 6821" class="cls-1" d="M12.93,14.46v4.19H11.07V14.46"/><path id="Stroke_6822" data-name="Stroke 6822" class="cls-1" d="M15,10.57h4.19v1.86H15"/><path id="Stroke_6823" data-name="Stroke 6823" class="cls-1" d="M11.07,8.53V4.35h1.86V8.54"/><path id="Stroke_6824" data-name="Stroke 6824" class="cls-1" d="M15.11,11.5A3.11,3.11,0,1,1,12,8.39,3.11,3.11,0,0,1,15.11,11.5Z"/><path id="Stroke_6825" data-name="Stroke 6825" class="cls-1" d="M12.93,5a6.51,6.51,0,0,1,5.53,5.53"/><path id="Stroke_6826" data-name="Stroke 6826" class="cls-1" d="M5.54,10.57A6.51,6.51,0,0,1,11.07,5"/><path id="Stroke_6827" data-name="Stroke 6827" class="cls-1" d="M11.07,18a6.51,6.51,0,0,1-5.53-5.53"/><path id="Stroke_6828" data-name="Stroke 6828" class="cls-1" d="M18.46,12.43A6.51,6.51,0,0,1,12.93,18"/></g></svg>