<svg id="Icones" xmlns="http://www.w3.org/2000/svg" viewBox="0 0 24 24"><defs><style>.cls-1{fill:none;stroke:#1d1d1b;stroke-linecap:round;stroke-linejoin:round;stroke-width:0.5px;}</style></defs><title>Icon - Gears</title><g id="Group"><path id="Stroke_3401" data-name="Stroke 3401" class="cls-1" d="M12.06,17.8,13,16.2l-.94-.53a3,3,0,0,0,0-1.34L13,13.8l-.94-1.6-.91.53A4.44,4.44,0,0,0,10,12.06V11H8.14v1.06a2.29,2.29,0,0,0-1.22.68L6,12.2,5,13.8l.93.53a3,3,0,0,0,0,1.34L5,16.2l.94,1.6,1-.53a2.34,2.34,0,0,0,1.22.67V19H10V17.94a5,5,0,0,0,1.14-.67l.9.53Z"/><path id="Stroke_3402" data-name="Stroke 3402" class="cls-1" d="M10.25,15A1.25,1.25,0,1,1,9,13.77,1.24,1.24,0,0,1,10.25,15Z"/></g><g id="Group-2" data-name="Group"><path id="Stroke_3401-2" data-name="Stroke 3401" class="cls-1" d="M18.06,11.8,19,10.2l-.94-.53a3,3,0,0,0,0-1.34L19,7.8l-.94-1.6-.91.53A4.44,4.44,0,0,0,16,6.06V5H14.14V6.06a2.29,2.29,0,0,0-1.22.68L12,6.2,11,7.8l.93.53a3,3,0,0,0,0,1.34L11,10.2l.94,1.6,1-.53a2.34,2.34,0,0,0,1.22.67V13H16V11.94a5,5,0,0,0,1.14-.67l.9.53Z"/><path id="Stroke_3402-2" data-name="Stroke 3402" class="cls-1" d="M16.25,9A1.25,1.25,0,1,1,15,7.77,1.24,1.24,0,0,1,16.25,9Z"/></g></svg>