<svg id="Icones" xmlns="http://www.w3.org/2000/svg" viewBox="0 0 24 24"><defs><style>.cls-1{fill:none;stroke:#1d1d1b;stroke-linecap:round;stroke-linejoin:round;stroke-width:0.5px;}</style></defs><title>Icon - Apple</title><path id="Stroke_7060" data-name="Stroke 7060" class="cls-1" d="M12,17.48c.78,0,.26.52,1.83.52S17,14.87,17,12.78s-1.31-3.65-2.87-3.65-1.57.52-2.09.52-.52-.52-2.09-.52S7,10.7,7,12.78,8.61,18,10.17,18,11.22,17.48,12,17.48Z"/><path id="Stroke_7061" data-name="Stroke 7061" class="cls-1" d="M12,9.65v-1a1,1,0,0,0-1-1H9.91"/><path id="Stroke_7062" data-name="Stroke 7062" class="cls-1" d="M13,8.35A2.35,2.35,0,0,0,15.39,6,2.35,2.35,0,0,0,13,8.35Z"/></svg>