<svg id="Icones" xmlns="http://www.w3.org/2000/svg" viewBox="0 0 24 24"><defs><style>.cls-1{fill:none;stroke:#1d1d1b;stroke-linecap:round;stroke-linejoin:round;stroke-width:0.5px;}</style></defs><title>Icon - Phone Signal</title><path id="Stroke_481" data-name="Stroke 481" class="cls-1" d="M9.35,10.93a1.09,1.09,0,0,0,0-1.53h0L8.2,8.25a1.09,1.09,0,0,0-1.53,0L6,8.88a1.62,1.62,0,0,0-.2,2,25.13,25.13,0,0,0,7,7,1.62,1.62,0,0,0,2-.21l.63-.63a1.07,1.07,0,0,0,0-1.53l-1.14-1.14a1.09,1.09,0,0,0-1.53,0l-.38.38A26,26,0,0,1,9,11.31l.38-.39Z"/><path id="Stroke_482" data-name="Stroke 482" class="cls-1" d="M12,6a5.86,5.86,0,0,1,6,6"/><path id="Stroke_483" data-name="Stroke 483" class="cls-1" d="M12,8a4,4,0,0,1,4,4"/><path id="Stroke_484" data-name="Stroke 484" class="cls-1" d="M12,10a2.09,2.09,0,0,1,2,2h0"/></svg>