<svg id="Icones" xmlns="http://www.w3.org/2000/svg" viewBox="0 0 24 24"><defs><style>.cls-1,.cls-2{fill:none;stroke-linecap:round;stroke-linejoin:round;stroke-width:0.5px;}.cls-1{stroke:#1d1d1b;}.cls-2{stroke:#231f20;}</style></defs><title>Icon - Money</title><circle class="cls-1" cx="12" cy="12" r="7"/><path class="cls-2" d="M14,10.16a3.27,3.27,0,0,0-1.49-.95,2.36,2.36,0,0,0-1.71.18A1.32,1.32,0,0,0,10,10.8a1.38,1.38,0,0,0,.69.76,19,19,0,0,0,2.4.71,1.5,1.5,0,0,1,.8.61,1.46,1.46,0,0,1-.38,1.74,2.16,2.16,0,0,1-2,.42,5,5,0,0,1-1.57-.7"/><line class="cls-2" x1="12" y1="15.12" x2="12" y2="16"/><line class="cls-2" x1="12" y1="8" x2="12" y2="9.12"/></svg>