<svg id="Icones" xmlns="http://www.w3.org/2000/svg" viewBox="0 0 24 24"><defs><style>.cls-1{fill:none;stroke:#1d1d1b;stroke-linecap:round;stroke-linejoin:round;stroke-width:0.48px;}</style></defs><title>Icon - Palette</title><g id="Group"><path id="Stroke_5932" data-name="Stroke 5932" class="cls-1" d="M6.2,17.94a7.5,7.5,0,1,1,10.6,0,3.59,3.59,0,0,1-5.07,0h0L9,15.17A.65.65,0,1,0,8,16l.06.06A1.3,1.3,0,0,1,6.2,17.94Z"/><path id="Stroke_5933" data-name="Stroke 5933" class="cls-1" d="M15,10.1a1,1,0,0,1-1.39,0A1,1,0,0,1,15,8.72h0A1,1,0,0,1,15,10.1Z"/><path id="Stroke_5934" data-name="Stroke 5934" class="cls-1" d="M15.6,13.1a.66.66,0,1,1,.93,0h0A.67.67,0,0,1,15.6,13.1Z"/><path id="Stroke_5935" data-name="Stroke 5935" class="cls-1" d="M13.34,16.79a1.31,1.31,0,1,1,1.85,0h0A1.31,1.31,0,0,1,13.34,16.79Z"/><path id="Stroke_5936" data-name="Stroke 5936" class="cls-1" d="M11,8a1,1,0,0,1,0,1.39A1,1,0,0,1,9.65,8h0A1,1,0,0,1,11,8Z"/></g></svg>