<svg id="Icones" xmlns="http://www.w3.org/2000/svg" viewBox="0 0 24 24"><defs><style>.cls-1{fill:none;stroke:#1d1d1b;stroke-linecap:round;stroke-linejoin:round;stroke-width:0.5px;}.cls-2{fill:#1d1d1b;}</style></defs><title>Icon - Danger</title><path id="Stroke_3071" data-name="Stroke 3071" class="cls-1" d="M5,12a7,7,0,1,1,7,7A7,7,0,0,1,5,12Z"/><path id="Stroke_3072" data-name="Stroke 3072" class="cls-1" d="M13.52,12.3h3.65a5.78,5.78,0,0,0-2.59-4.78l-1.82,3.17A2,2,0,0,1,13.52,12.3Z"/><path id="Stroke_3073" data-name="Stroke 3073" class="cls-1" d="M11.24,13.31,9.41,16.48a5.21,5.21,0,0,0,5.18,0l-1.83-3.17a1.48,1.48,0,0,1-1.52,0Z"/><path id="Stroke_3074" data-name="Stroke 3074" class="cls-1" d="M10.48,12.3a2,2,0,0,1,.76-1.61L9.42,7.52A5.78,5.78,0,0,0,6.83,12.3Z"/><path id="Stroke_3075" data-name="Stroke 3075" class="cls-2" d="M12.3,12a.3.3,0,1,1-.3-.3A.29.29,0,0,1,12.3,12Z"/></svg>