<svg id="Icones" xmlns="http://www.w3.org/2000/svg" viewBox="0 0 24 24"><defs><style>.cls-1{fill:none;stroke:#1d1d1b;stroke-linecap:round;stroke-linejoin:round;stroke-width:0.5px;}</style></defs><title>Icon - Hook Telephone</title><g id="Group"><path id="Stroke_654" data-name="Stroke 654" class="cls-1" d="M17.2,7a1.83,1.83,0,0,1,1.44,1.73v.87a1.16,1.16,0,0,1-1.15,1.15H15.75A1.16,1.16,0,0,1,14.6,9.63V9.05a26.57,26.57,0,0,0-5.2,0v.58a1.16,1.16,0,0,1-1.15,1.15H6.51A1.16,1.16,0,0,1,5.36,9.63V8.76A1.83,1.83,0,0,1,6.8,7,26,26,0,0,1,17.2,7Z"/><path id="Stroke_655" data-name="Stroke 655" class="cls-1" d="M17.49,18h-11V16.27a4.64,4.64,0,0,1,4.62-4.62h1.74a4.64,4.64,0,0,1,4.62,4.62Z"/><path id="Stroke_656" data-name="Stroke 656" class="cls-1" d="M11.13,10.49v1.16"/><path id="Stroke_657" data-name="Stroke 657" class="cls-1" d="M12.87,10.49v1.16"/><path id="Stroke_658" data-name="Stroke 658" class="cls-1" d="M14,14.82a2,2,0,1,1-2-2,2,2,0,0,1,2,2Z"/></g></svg>