<svg id="Icones" xmlns="http://www.w3.org/2000/svg" viewBox="0 0 24 24"><defs><style>.cls-1,.cls-2,.cls-3{fill:none;stroke:#1d1d1b;stroke-linecap:round;stroke-linejoin:round;}.cls-1{stroke-width:0.5px;}.cls-2{stroke-width:0.49px;}.cls-3{stroke-width:0.49px;}</style></defs><title>Icon - Job Search</title><path class="cls-1" d="M12,5h0a2.5,2.5,0,0,1,2.5,2.5V8a0,0,0,0,1,0,0h-5a0,0,0,0,1,0,0V7.5A2.5,2.5,0,0,1,12,5Z"/><line class="cls-2" x1="5" y1="11" x2="12" y2="11"/><circle class="cls-1" cx="16.06" cy="11.9" r="2.06"/><line class="cls-1" x1="17.52" y1="13.35" x2="19" y2="14.84"/><path class="cls-3" d="M19,16.59V17a1,1,0,0,1-1,1H6a1,1,0,0,1-1-1V9A1,1,0,0,1,6,8H18a1,1,0,0,1,1,1v1.52"/></svg>