<svg id="Icones" xmlns="http://www.w3.org/2000/svg" viewBox="0 0 24 24"><defs><style>.cls-1{fill:none;stroke:#1d1d1b;stroke-linecap:round;stroke-linejoin:round;stroke-width:0.48px;}</style></defs><title>Icon - Gift</title><path id="Stroke_1599" data-name="Stroke 1599" class="cls-1" d="M17.66,11H6.34V9H17.66Z"/><path id="Stroke_1600" data-name="Stroke 1600" class="cls-1" d="M17,17H7V11H17Z"/><path id="Stroke_1601" data-name="Stroke 1601" class="cls-1" d="M10,11v6"/><path id="Stroke_1601-2" data-name="Stroke 1601" class="cls-1" d="M14,11v6"/><path id="Stroke_1603" data-name="Stroke 1603" class="cls-1" d="M14.78,7.92A10.24,10.24,0,0,1,12,9a10.24,10.24,0,0,1,1-2.78,1.23,1.23,0,0,1,1.74,1.74Z"/><path id="Stroke_1604" data-name="Stroke 1604" class="cls-1" d="M9.22,7.92A10.24,10.24,0,0,0,12,9a10.24,10.24,0,0,0-1-2.78A1.23,1.23,0,0,0,9.22,7.92Z"/></svg>