<svg id="Icones" xmlns="http://www.w3.org/2000/svg" viewBox="0 0 24 24"><defs><style>.cls-1{fill:none;stroke:#1d1d1b;stroke-linecap:round;stroke-linejoin:round;stroke-width:0.5px;}</style></defs><title>Icon - Draw</title><path class="cls-1" d="M15.58,12.76l1.88,1.89a1,1,0,0,1,0,1.41l-1.41,1.42a1,1,0,0,1-1.42,0l-1.91-1.92"/><path class="cls-1" d="M8.6,11.44,6.76,9.6a1,1,0,0,1,0-1.41L8.18,6.78a1,1,0,0,1,1.41,0l1.84,1.84"/><line class="cls-1" x1="7.08" y1="9.92" x2="7.92" y2="9.09"/><line class="cls-1" x1="14.01" y1="16.85" x2="14.84" y2="16.01"/><path class="cls-1" d="M10.67,6.06h4a0,0,0,0,1,0,0v10a1,1,0,0,1-1,1h-2a1,1,0,0,1-1-1v-10a0,0,0,0,1,0,0Z" transform="translate(13.46 28.7) rotate(-135)"/><polyline class="cls-1" points="10.2 16.87 6.66 17.57 7.37 14.04"/><line class="cls-1" x1="16.56" y1="10.5" x2="13.73" y2="7.68"/></svg>