<svg id="Icones" xmlns="http://www.w3.org/2000/svg" viewBox="0 0 24 24"><defs><style>.cls-1{fill:none;stroke:#1d1d1b;stroke-linecap:round;stroke-linejoin:round;stroke-width:0.5px;}</style></defs><title>Icon - No Phone Signal</title><path class="cls-1" d="M11.57,14.23a20.71,20.71,0,0,0,2.17,1.69,1.3,1.3,0,0,0,1.64-.16l.5-.5a.87.87,0,0,0,0-1.23L15,13.12a.86.86,0,0,0-1.22,0l-.31.3c-.23-.19-.44-.4-.66-.6"/><path class="cls-1" d="M11.2,11.25c-.19-.22-.4-.42-.58-.64l.31-.31h0a.87.87,0,0,0,0-1.22h0L10,8.16a.87.87,0,0,0-1.23,0l-.5.5a1.31,1.31,0,0,0-.16,1.64,20.29,20.29,0,0,0,1.76,2.25"/><circle class="cls-1" cx="12" cy="12" r="7"/><path id="Stroke_156" data-name="Stroke 156" class="cls-1" d="M17,7.08,7.07,17"/></svg>