<svg id="Icones" xmlns="http://www.w3.org/2000/svg" viewBox="0 0 24 24"><defs><style>.cls-1{fill:none;stroke:#1d1d1b;stroke-linecap:round;stroke-linejoin:round;stroke-width:0.5px;}</style></defs><title>Icon - Umbrella</title><g id="Stroke_4310_Stroke_4311_Stroke_4312" data-name="Stroke 4310 Stroke 4311 Stroke 4312"><path id="Stroke_4310" data-name="Stroke 4310" class="cls-1" d="M17,12.81C17.13,9.62,15,7,12,7S6.87,9.62,7,12.81a1,1,0,0,1,1.12-1,1,1,0,0,1,1.15,1,1.32,1.32,0,0,1,1.36-1,1.32,1.32,0,0,1,1.36,1,1.69,1.69,0,0,1,1.36-1,1.7,1.7,0,0,1,1.37,1,1.24,1.24,0,0,1,1.14-1A1.23,1.23,0,0,1,17,12.81Z"/><path id="Stroke_4311" data-name="Stroke 4311" class="cls-1" d="M12,7V6"/><path id="Stroke_4312" data-name="Stroke 4312" class="cls-1" d="M13.14,16.45a.57.57,0,0,1-1.14,0V12.81"/></g></svg>